<svg id="Guide" height="512" viewBox="0 0 512 512" width="512" xmlns="http://www.w3.org/2000/svg"><g fill="rgb(0,0,0)"><path d="m256 86.16c-93.65 0-169.84 76.19-169.84 169.84s76.19 169.84 169.84 169.84 169.84-76.19 169.84-169.84-76.19-169.84-169.84-169.84zm49.765 167.23a49.614 49.614 0 0 0 -12.393-30.3l113.9-12.159a157.665 157.665 0 0 1 -15.572 125.602zm-49.765 40.444a37.834 37.834 0 1 1 37.834-37.834 37.878 37.878 0 0 1 -37.834 37.834zm147.294-94.551-123.143 13.146a49.484 49.484 0 0 0 -22.359-6.218l59.064-95.842a158.725 158.725 0 0 1 86.438 88.914zm-97.895-93.2-62.815 101.932a50.043 50.043 0 0 0 -31.092 25.611l-35.363-113.715a157.663 157.663 0 0 1 129.271-13.825zm-139.742 20.565 40.534 130.344a49.7 49.7 0 0 0 1.738 12.121l-109.458-22.877a157.844 157.844 0 0 1 67.186-119.588zm-67.466 131.789 115.709 24.184a50.079 50.079 0 0 0 25.651 20.412l-98.19 61.351a157.267 157.267 0 0 1 -43.17-105.947zm52 114.583 107.6-67.232a49.481 49.481 0 0 0 22.534-6.319l-9 113.624c-5.045.489-10.157.747-15.329.747a157.219 157.219 0 0 1 -105.806-40.82zm133.309 38.417 9.686-122.307a49.771 49.771 0 0 0 11.035-20.538l80.822 78.2a158.106 158.106 0 0 1 -101.543 64.645z"/><path d="m36 10a26.029 26.029 0 0 0 -26 26v83.186a6 6 0 0 0 12 0v-83.186a14.015 14.015 0 0 1 14-14h90.123a6 6 0 0 0 0-12z"/><path d="m496 382.025a6 6 0 0 0 -6 6v87.975a14.015 14.015 0 0 1 -14 14h-83.558a6 6 0 0 0 0 12h83.558a26.029 26.029 0 0 0 26-26v-87.975a6 6 0 0 0 -6-6z"/><path d="m476 10h-81.878a6 6 0 0 0 0 12h81.878a14.015 14.015 0 0 1 14 14v78.985a6 6 0 1 0 12 0v-78.985a26.029 26.029 0 0 0 -26-26z"/><path d="m113.521 490h-77.521a14.015 14.015 0 0 1 -14-14v-77.053a6 6 0 0 0 -12 0v77.053a26.029 26.029 0 0 0 26 26h77.521a6 6 0 0 0 0-12z"/></g></svg>