<?xml version="1.0" encoding="utf-8"?>
<!-- Generator: Adobe Illustrator 22.0.1, SVG Export Plug-In . SVG Version: 6.00 Build 0)  -->
<svg version="1.1" id="Capa_1" xmlns="http://www.w3.org/2000/svg" xmlns:xlink="http://www.w3.org/1999/xlink" x="0px" y="0px"
	 viewBox="0 0 438.5 438.5" style="enable-background:new 0 0 438.5 438.5;" xml:space="preserve">
<style type="text/css">
	.st0{fill:#C0C0C0;}
</style>
<g>
	<path class="st0" d="M409.1,109.2c-19.6-33.6-46.2-60.2-79.8-79.8S259.1,0,219.3,0s-76.5,9.8-110.1,29.4S49,75.6,29.4,109.2
		S0,179.5,0,219.3s9.8,76.5,29.4,110.1s46.2,60.2,79.8,79.8s70.3,29.4,110.1,29.4s76.5-9.8,110.1-29.4s60.2-46.2,79.8-79.8
		s29.4-70.3,29.4-110.1C438.5,179.5,428.7,142.8,409.1,109.2z M353.7,297.2c-13.9,23.8-32.7,42.6-56.5,56.5s-49.8,20.8-77.9,20.8
		c-28.2,0-54.1-6.9-77.9-20.8S98.8,321,84.9,297.2c-14-23.8-20.9-49.8-20.9-77.9c0-28.2,6.9-54.2,20.8-77.9
		c13.9-23.8,32.7-42.6,56.5-56.5c23.8-14,49.8-20.9,78-20.9s54.2,6.9,77.9,20.8c23.8,13.9,42.6,32.7,56.5,56.5s20.8,49.8,20.8,77.9
		C374.6,247.4,367.6,273.4,353.7,297.2z"/>
</g>
</svg>
